<svg xmlns="http://www.w3.org/2000/svg" version="1.0" preserveAspectRatio="xMidYMid meet" viewBox="593.5 776.14 2919.34 2077.65">
  <g transform="translate(0.000000,4267.000000) scale(0.100000,-0.100000)">
    <path d="M24200 34899 c-712 -35 -1491 -156 -2100 -325 -1245 -346 -2511 -1053 -3575 -1997 -699 -621 -1305 -1346 -1802 -2157 -429 -701 -506 -910 -1558 -4195 -427 -1335 -542 -1688 -571 -1753 l-24 -55 -134 394 c-74 217 -328 957 -566 1644 -237 688 -548 1588 -690 2000 -704 2044 -883 2553 -1025 2915 -129 330 -193 450 -288 541 -156 151 -361 300 -493 360 -177 81 -250 83 -2359 75 -2223 -8 -2642 -18 -2797 -66 -115 -36 -208 -115 -257 -219 -25 -53 -26 -64 -26 -206 1 -150 1 -150 49 -310 146 -490 229 -730 1506 -4330 1605 -4528 1955 -5516 2955 -8345 1003 -2838 1084 -3064 1270 -3535 127 -321 175 -395 410 -630 184 -184 292 -266 472 -355 377 -187 448 -193 2408 -210 1733 -15 2266 2 2593 80 213 51 353 146 519 352 201 249 305 543 703 1993 236 861 385 1392 610 2180 489 1710 899 3222 1580 5825 254 968 428 1592 540 1931 100 302 330 696 585 1002 562 672 1379 1164 2222 1336 175 36 436 76 583 90 169 17 1986 38 5120 61 1996 15 3515 38 3665 56 28 3 102 23 165 44 448 147 842 473 1021 845 145 302 189 551 209 1180 17 554 7 1392 -20 1702 -39 440 -154 766 -372 1055 -166 220 -414 428 -631 528 -427 196 -1129 260 -3652 335 -280 8 -717 22 -970 30 -253 8 -602 20 -775 25 -360 12 -1161 38 -2235 75 -1341 45 -1881 53 -2265 34z m2470 -1999 l0 -1190 -157 0 c-577 1 -1868 139 -1955 209 -19 16 -19 18 -3 79 53 208 347 766 568 1082 109 156 242 322 368 460 161 176 468 440 581 500 74 40 133 47 406 49 l192 1 0 -1190z m1154 1165 c148 -39 328 -167 565 -399 240 -237 465 -507 595 -716 161 -258 476 -917 476 -994 0 -9 -15 -19 -37 -26 -258 -73 -1417 -201 -1955 -217 l-218 -6 0 1185 c0 651 3 1188 8 1193 13 14 501 -2 566 -20z m-2680 -127 c-4 -7 -75 -94 -158 -193 -381 -458 -620 -838 -936 -1493 -62 -128 -110 -192 -144 -192 -30 0 -256 88 -526 205 -146 63 -581 278 -578 286 3 7 213 192 318 280 101 84 353 270 495 364 405 268 739 438 1360 689 173 70 180 72 169 54z m4130 -189 c105 -50 250 -121 321 -159 560 -293 1387 -847 1476 -987 l19 -29 -33 -31 c-106 -102 -572 -336 -842 -423 -53 -16 -106 -30 -118 -30 -49 0 -109 95 -282 445 -228 461 -456 833 -691 1129 -85 107 -144 192 -144 208 0 11 79 -22 294 -123z m-6695 -1728 c380 -202 559 -287 926 -442 173 -73 231 -101 233 -115 1 -11 -18 -95 -43 -189 -148 -545 -230 -945 -320 -1555 -14 -96 -30 -192 -36 -212 -15 -56 -65 -98 -196 -162 -320 -157 -698 -416 -1213 -831 l-231 -187 -137 -9 c-184 -12 -686 -39 -688 -36 -1 1 5 49 12 107 8 58 32 249 55 425 59 476 89 643 169 950 138 535 358 1043 643 1490 144 226 483 713 570 818 21 26 46 47 54 47 9 0 99 -44 202 -99z m8978 7 c175 -166 466 -558 662 -893 194 -332 321 -630 464 -1087 l65 -208 -1074 0 -1074 0 -5 23 c-2 12 -21 117 -40 232 -20 116 -54 296 -76 400 -51 241 -190 805 -224 909 l-26 78 23 26 c28 30 108 68 293 137 211 79 370 151 660 300 145 74 271 135 280 135 9 0 41 -24 72 -52z m-1909 -683 c31 -39 78 -159 106 -270 66 -261 168 -761 211 -1030 14 -88 27 -170 30 -182 l5 -23 -1349 0 -1349 0 -6 25 c-17 68 -45 750 -46 1106 l0 107 123 6 c643 36 1431 130 1957 236 135 26 257 49 272 49 17 1 34 -8 46 -24z m-5168 -44 c376 -73 730 -120 1220 -161 207 -17 958 -70 998 -70 9 0 12 -130 12 -615 l0 -615 -162 0 c-264 0 -1135 -19 -1373 -30 -390 -18 -532 -37 -971 -128 -105 -22 -209 -42 -230 -43 l-39 -4 2 69 c8 226 274 1423 349 1568 17 33 53 59 74 54 8 -3 62 -14 120 -25z m-10850 -8938 c0 -5 -47 -59 -105 -122 -57 -62 -114 -132 -125 -155 -26 -55 -26 -107 0 -131 19 -18 23 -17 102 9 44 14 176 69 292 120 386 172 638 252 865 278 135 15 248 2 329 -38 73 -36 80 -55 48 -128 -36 -82 -35 -90 14 -82 22 3 107 27 188 53 350 110 455 128 712 120 191 -6 272 -21 420 -78 93 -36 206 -108 267 -171 45 -47 154 -181 150 -185 -3 -3 -472 -73 -1467 -219 -1802 -264 -3502 -519 -3769 -564 -96 -17 -175 -29 -177 -28 -3 3 58 75 193 230 219 252 696 615 971 740 195 88 680 256 934 322 141 37 158 40 158 29z m5200 -2302 c0 -61 -248 -205 -983 -573 -1403 -701 -2127 -1130 -2446 -1449 -220 -221 -382 -508 -355 -633 20 -97 157 -267 282 -350 261 -172 797 -258 1847 -296 407 -15 677 -38 697 -58 8 -9 -59 -253 -239 -871 l-148 -503 -225 6 c-624 19 -933 49 -1355 132 -651 128 -1286 349 -1738 605 -630 357 -817 725 -598 1174 182 373 634 717 1866 1420 351 200 551 320 561 336 10 16 -25 36 -111 64 -336 107 -1269 277 -1950 355 -99 11 -313 30 -475 43 l-295 22 405 3 c682 5 1282 -35 1970 -133 283 -41 309 -45 730 -126 l316 -60 229 96 c344 145 656 270 985 395 466 176 791 308 908 366 59 30 110 54 115 54 4 0 7 -9 7 -19z"/>
    <path d="M25125 27470 c-146 -6 -208 -12 -266 -28 -450 -125 -845 -385 -1105 -727 -89 -116 -137 -198 -230 -392 l-84 -171 -9 -914 c-9 -922 -2 -1603 19 -1793 77 -688 649 -1300 1423 -1524 176 -51 539 -118 877 -161 91 -12 173 -25 183 -28 15 -6 -6 -36 -124 -177 -78 -94 -204 -246 -279 -340 -159 -197 -219 -256 -298 -293 -56 -27 -59 -27 -272 -26 -168 0 -314 10 -665 42 -695 64 -1010 76 -1076 42 -91 -47 -211 -178 -245 -265 -43 -114 30 -191 491 -515 235 -165 482 -350 514 -384 33 -35 23 -44 -123 -115 -284 -138 -943 -381 -1617 -596 -426 -135 -656 -231 -793 -329 -87 -62 -220 -197 -289 -293 -113 -159 -199 -353 -256 -579 -30 -120 -74 -355 -67 -362 9 -9 421 83 611 137 660 187 1521 513 2043 775 130 65 394 189 440 207 49 19 19 -26 -86 -130 -271 -267 -659 -553 -1167 -858 -656 -394 -1274 -701 -1857 -923 -103 -39 -170 -70 -172 -79 -3 -9 -64 -317 -136 -686 -72 -368 -144 -737 -160 -820 -67 -340 -150 -834 -150 -891 0 -26 42 -70 94 -96 35 -18 71 -21 345 -30 486 -15 7029 -22 8406 -9 649 7 1281 16 1405 21 637 24 1268 206 1894 546 430 234 764 482 1112 829 416 414 654 746 931 1299 228 455 338 744 448 1171 163 634 175 1050 156 5512 l-10 2552 -114 233 c-178 362 -309 541 -537 732 -216 181 -541 339 -771 375 -145 23 -1312 45 -3254 61 -1261 11 -4881 10 -5180 0z m7956 -1316 c213 -40 393 -190 460 -384 30 -90 37 -245 15 -363 -46 -244 -187 -537 -354 -737 -254 -303 -582 -589 -1322 -1150 -1009 -766 -1108 -843 -1118 -879 -10 -37 -6 -626 7 -961 7 -157 23 -544 36 -860 47 -1092 73 -1981 75 -2565 l0 -70 -125 -114 c-152 -139 -324 -277 -425 -343 l-75 -49 -23 78 c-47 158 -210 677 -449 1433 -135 426 -305 969 -379 1205 -178 567 -324 1005 -336 1005 -23 0 -524 -305 -1250 -762 -1609 -1011 -2133 -1306 -2716 -1529 -189 -73 -290 -99 -379 -99 -103 1 -149 26 -236 133 -123 151 -118 229 26 384 40 42 353 338 697 657 343 320 922 858 1285 1196 677 630 1168 1082 1310 1207 93 81 145 138 145 158 0 23 -620 516 -1970 1565 -1089 846 -1240 969 -1240 1011 0 24 137 94 360 182 281 112 428 137 586 102 249 -55 1058 -342 2917 -1035 710 -264 1082 -398 1090 -392 7 5 219 164 472 352 1726 1289 1828 1363 1975 1439 320 164 677 235 941 185z m-6995 -7296 c18 -28 23 -215 14 -498 -18 -548 -32 -654 -97 -742 -73 -100 -273 -245 -353 -255 l-37 -5 -32 88 c-98 270 -320 1073 -300 1087 11 8 651 289 709 311 75 29 86 30 96 14z m-1696 -1124 c0 -29 -185 -249 -365 -433 -507 -519 -969 -847 -1725 -1225 -478 -239 -889 -396 -1035 -396 -52 0 -58 11 -45 82 10 50 20 71 50 96 26 22 199 107 340 167 973 414 1880 960 2511 1510 197 172 269 226 269 199z"/>
  </g>
</svg>